<?xml version="1.0" standalone="no"?>
<!DOCTYPE svg PUBLIC "-//W3C//DTD SVG 20010904//EN"
 "http://www.w3.org/TR/2001/REC-SVG-20010904/DTD/svg10.dtd">
<svg version="1.0" xmlns="http://www.w3.org/2000/svg"
 width="549.000000pt" height="146.000000pt" viewBox="0 0 549.000000 146.000000"
 preserveAspectRatio="xMidYMid meet">

<g transform="translate(0.000000,146.000000) scale(0.100000,-0.100000)"
fill="#000000" stroke="none">
<path d="M515 1006 c-37 -16 -70 -52 -84 -89 -7 -17 -11 -125 -11 -278 l0
-250 264 3 c249 3 266 4 292 24 69 51 69 49 72 340 l3 264 -253 0 c-188 -1
-261 -4 -283 -14z m411 -473 c-2 -2 -91 -2 -199 -1 l-197 3 59 100 c32 55 77
133 100 173 l43 74 99 -173 c54 -95 97 -174 95 -176z"/>
<path d="M718 729 c-43 -70 -78 -130 -78 -134 0 -3 41 -5 91 -5 69 0 90 3 86
13 -2 6 -23 43 -45 81 -40 68 -40 69 -54 45z"/>
<path d="M1240 840 c0 -5 5 -10 10 -10 6 0 10 -37 10 -90 0 -53 -4 -90 -10
-90 -5 0 -10 -4 -10 -10 0 -6 33 -10 79 -10 l79 0 6 32 c9 45 -11 61 -25 20
-9 -28 -16 -32 -45 -32 l-34 0 0 85 c0 67 3 87 15 91 30 12 14 24 -30 24 -25
0 -45 -4 -45 -10z"/>
<path d="M1465 828 c-47 -41 -50 -144 -5 -180 80 -65 189 44 146 145 -24 58
-94 75 -141 35z m95 -17 c14 -26 13 -107 -1 -134 -22 -41 -40 -46 -69 -17 -25
25 -28 114 -4 148 19 27 60 29 74 3z"/>
<path d="M1694 836 c-39 -17 -58 -63 -51 -119 10 -71 58 -98 146 -81 28 6 31
10 31 43 0 20 5 42 12 49 9 9 2 12 -35 12 -26 0 -47 -4 -47 -10 0 -5 7 -10 15
-10 10 0 15 -11 15 -35 0 -33 -2 -35 -35 -35 -43 0 -56 22 -57 91 0 59 21 89
63 89 19 0 30 -6 34 -20 9 -28 35 -25 35 4 0 36 -66 48 -126 22z"/>
<path d="M1860 840 c0 -5 5 -10 10 -10 6 0 10 -37 10 -90 0 -53 -4 -90 -10
-90 -5 0 -10 -4 -10 -10 0 -5 20 -10 45 -10 25 0 45 5 45 10 0 6 -7 10 -15 10
-12 0 -15 16 -15 85 0 67 3 87 15 91 30 12 14 24 -30 24 -25 0 -45 -4 -45 -10z"/>
<path d="M2030 837 c-55 -27 -73 -115 -36 -172 28 -43 146 -46 146 -5 0 23
-18 27 -26 5 -4 -8 -19 -15 -35 -15 -37 0 -59 33 -59 90 0 55 22 90 56 90 17
0 27 -8 34 -25 13 -34 30 -32 30 4 0 21 -6 30 -22 35 -35 9 -60 7 -88 -7z"/>
<path d="M2232 833 c-5 -10 -22 -55 -36 -100 -15 -46 -32 -83 -37 -83 -5 0 -9
-4 -9 -10 0 -5 16 -10 35 -10 33 0 48 14 24 22 -5 2 -7 11 -4 21 5 12 18 17
45 17 27 0 40 -5 45 -17 3 -10 1 -19 -4 -21 -26 -9 -8 -22 29 -22 36 0 54 13
31 22 -4 2 -23 47 -40 101 -26 77 -37 97 -51 97 -11 0 -23 -8 -28 -17z m28
-48 c25 -67 24 -75 -9 -75 -17 0 -31 3 -31 6 0 13 23 94 26 94 3 0 9 -11 14
-25z"/>
<path d="M2440 840 c0 -5 5 -10 10 -10 6 0 10 -37 10 -90 0 -53 -4 -90 -10
-90 -5 0 -10 -4 -10 -10 0 -6 28 -10 64 -10 54 0 69 4 94 25 56 47 55 141 -1
175 -35 22 -157 29 -157 10z m135 -30 c13 -14 19 -36 19 -70 0 -58 -23 -90
-66 -90 l-28 0 0 90 0 90 28 0 c16 0 37 -9 47 -20z"/>
<path d="M2660 841 c0 -5 7 -11 15 -15 12 -4 15 -24 15 -91 0 -69 -3 -85 -15
-85 -8 0 -15 -4 -15 -10 0 -6 35 -10 85 -10 l85 0 0 30 c0 34 -15 40 -23 10
-4 -15 -14 -20 -41 -20 -35 0 -36 1 -36 40 0 33 3 40 20 40 11 0 20 -4 20 -10
0 -5 5 -10 10 -10 6 0 10 17 10 38 -1 33 -2 35 -14 20 -24 -33 -46 -22 -46 22
0 38 2 40 30 40 18 0 33 -6 36 -15 9 -23 26 -18 22 8 -3 20 -9 22 -80 25 -44
2 -78 -1 -78 -7z"/>
<path d="M2893 840 c-49 -20 -40 -81 16 -109 46 -24 63 -44 55 -65 -9 -25 -70
-22 -77 4 -7 28 -27 25 -27 -5 0 -20 6 -25 35 -31 48 -9 82 2 101 31 15 23 15
27 0 50 -9 14 -35 34 -57 45 -31 16 -40 26 -37 43 4 31 57 37 65 8 7 -29 23
-26 23 3 0 34 -45 47 -97 26z"/>
<path d="M3081 837 c-33 -20 -50 -55 -51 -105 0 -59 41 -102 97 -102 43 0 57
7 66 33 4 11 2 17 -7 17 -8 0 -16 -7 -20 -15 -3 -9 -18 -15 -36 -15 -26 0 -33
6 -46 35 -29 70 -6 145 45 145 22 0 30 -6 35 -25 4 -14 10 -25 15 -25 10 0 25
50 17 57 -13 13 -93 12 -115 0z"/>
<path d="M3271 837 c-33 -20 -50 -55 -51 -105 0 -76 76 -126 141 -92 50 27 66
130 27 175 -28 31 -83 41 -117 22z m76 -19 c31 -39 20 -148 -16 -168 -15 -7
-25 -5 -42 9 -20 16 -24 28 -24 79 0 35 6 66 14 76 16 19 54 21 68 4z"/>
<path d="M3440 841 c0 -6 7 -11 16 -11 12 0 14 -7 10 -27 -3 -16 -8 -56 -11
-90 -5 -44 -11 -63 -21 -63 -8 0 -14 -4 -14 -10 0 -5 18 -10 40 -10 22 0 40 5
40 10 0 6 -7 10 -16 10 -13 0 -15 7 -10 31 3 17 6 53 6 80 0 27 4 49 8 49 5 0
20 -37 33 -82 34 -115 50 -115 80 1 13 50 26 85 30 78 3 -6 9 -45 13 -84 5
-61 4 -73 -9 -73 -8 0 -15 -4 -15 -10 0 -5 20 -10 45 -10 25 0 45 5 45 10 0 6
-4 10 -9 10 -5 0 -14 34 -20 75 -14 98 -14 105 4 105 8 0 15 5 15 10 0 6 -20
10 -44 10 l-43 0 -18 -67 c-10 -38 -20 -72 -23 -77 -3 -5 -15 24 -26 65 l-21
74 -42 3 c-26 2 -43 -1 -43 -7z"/>
<path d="M3730 840 c0 -5 5 -10 10 -10 6 0 10 -37 10 -90 0 -53 -4 -90 -10
-90 -5 0 -10 -4 -10 -10 0 -5 23 -10 50 -10 28 0 50 5 50 10 0 6 -9 10 -20 10
-16 0 -20 7 -20 30 0 26 3 30 29 30 15 0 40 10 55 21 36 29 34 87 -4 106 -30
15 -140 17 -140 3z m118 -22 c13 -13 16 -57 4 -75 -4 -7 -19 -14 -32 -15 -23
-3 -25 0 -28 50 -3 49 -2 52 20 52 13 0 29 -5 36 -12z"/>
<path d="M3926 841 c-3 -5 1 -11 9 -15 22 -8 22 -176 0 -176 -8 0 -15 -4 -15
-10 0 -6 33 -10 79 -10 l79 0 7 31 c10 45 -11 62 -26 21 -9 -26 -16 -32 -40
-32 l-29 0 0 90 c0 53 4 90 10 90 6 0 10 5 10 10 0 12 -77 13 -84 1z"/>
<path d="M4110 840 c0 -5 5 -10 10 -10 6 0 10 -37 10 -90 0 -53 -4 -90 -10
-90 -5 0 -10 -4 -10 -10 0 -5 20 -10 45 -10 25 0 45 5 45 10 0 6 -4 10 -10 10
-6 0 -10 37 -10 90 0 53 4 90 10 90 6 0 10 5 10 10 0 6 -20 10 -45 10 -25 0
-45 -4 -45 -10z"/>
<path d="M4278 834 c-35 -19 -48 -43 -48 -93 0 -74 33 -111 100 -111 41 0 60
10 60 31 0 23 -16 25 -24 3 -4 -10 -16 -14 -38 -12 -42 4 -60 37 -55 100 5 57
20 78 57 78 21 0 29 -6 34 -25 9 -34 23 -32 28 4 3 23 0 31 -16 35 -35 9 -70
6 -98 -10z"/>
<path d="M4487 843 c-2 -5 -17 -46 -32 -93 -15 -47 -34 -90 -41 -96 -23 -18
-16 -24 29 -24 35 1 39 3 27 13 -9 7 -14 20 -12 30 5 24 80 24 89 0 4 -9 1
-19 -5 -21 -27 -9 -9 -22 28 -22 22 0 40 1 40 3 0 2 -8 21 -19 43 -10 21 -28
69 -40 107 -17 51 -27 67 -41 67 -10 0 -21 -3 -23 -7z m37 -100 c7 -32 6 -33
-23 -33 -29 0 -31 2 -25 28 4 15 11 38 16 52 10 24 10 24 18 5 4 -11 11 -35
14 -52z"/>
<path d="M4630 842 c0 -6 5 -14 10 -17 6 -3 10 -44 10 -91 0 -68 -3 -84 -15
-84 -8 0 -15 -4 -15 -10 0 -15 117 -12 149 4 55 29 70 123 27 173 -21 24 -32
28 -95 31 -46 3 -71 0 -71 -6z m124 -28 c21 -21 30 -58 23 -100 -8 -47 -23
-64 -58 -64 l-29 0 0 90 c0 89 0 90 24 90 14 0 32 -7 40 -16z"/>
<path d="M4881 750 c-18 -55 -37 -100 -42 -100 -5 0 -9 -4 -9 -10 0 -5 16 -10
35 -10 33 0 48 14 23 22 -6 2 -9 12 -5 21 9 24 82 24 92 0 3 -10 1 -19 -4 -21
-26 -9 -8 -22 29 -22 22 0 40 5 40 10 0 6 -4 10 -9 10 -5 0 -24 45 -42 100
-28 84 -37 100 -54 100 -17 0 -26 -16 -54 -100z m58 38 c4 -13 11 -35 15 -50
6 -26 4 -28 -24 -28 -33 0 -35 6 -18 61 13 45 16 47 27 17z"/>
</g>
</svg>
